<svg width="1024" height="1024" viewBox="0 0 1024 1024" fill="none" xmlns="http://www.w3.org/2000/svg">
<path d="M122.879 512C122.879 297.094 297.094 122.879 512 122.879C598.511 122.879 678.381 151.064 743.008 198.834C759.962 158.936 794.125 128.114 836.173 115.684C747.923 43.4281 634.998 0 512 0C229.23 0 0 229.23 0 512C0 794.771 229.23 1024 512 1024C794.771 1024 1024 794.771 1024 512C1024 452.818 1013.93 395.887 995.398 342.892C970.17 376.993 930.483 399.744 885.395 402.074C895.622 436.89 901.12 473.768 901.12 512C901.12 726.906 726.906 901.12 512 901.12C297.094 901.12 122.879 726.906 122.879 512Z" fill="white"/>
<path d="M1013.48 408.262C1008.88 385.915 1002.82 364.09 995.411 342.891C970.189 376.991 930.496 399.742 885.408 402.072C892.64 426.698 897.51 452.357 899.738 478.797C947.226 472.958 988.275 446.315 1013.48 408.262Z" fill="#ECECEC"/>
<path d="M511.999 736C635.421 736 736 635.611 736 511.999C736 388.577 635.612 288 511.999 288C388.387 288 288 388.577 288 511.999C288 635.421 388.578 736 511.999 736Z" fill="white"/>
<path d="M848 319.999C909.856 319.999 960 269.855 960 208C960 146.144 909.856 96 848 96C786.144 96 736 146.144 736 208C736 269.855 786.144 319.999 848 319.999Z" fill="white"/>
</svg>
